<svg width="32" height="32" xmlns="http://www.w3.org/2000/svg" xmlns:xlink="http://www.w3.org/1999/xlink"><defs><path d="M24 8.478v19.565C24 29.124 23.105 30 22 30H2c-1.105 0-2-.876-2-1.957V1.957C0 .876.895 0 2 0h13.333" id="a"/></defs><g fill="#fff" fill-rule="evenodd"><g transform="translate(4 1)"><mask id="b" fill="#fff"><use xlink:href="#a"/></mask><path stroke="#59CD8F" stroke-width=".5" d="M23.75 8.583L15.231.25H2C1.032.25.25 1.015.25 1.957v26.086c0 .942.782 1.707 1.75 1.707h20c.968 0 1.75-.765 1.75-1.707V8.583z"/><rect fill="#59CD8F" fill-rule="nonzero" mask="url(#b)" x="15" y="-5" width="14" height="14" rx="1.92"/></g><path d="M19.063 19.125a1.313 1.313 0 1 0-.001-2.626 1.313 1.313 0 0 0 0 2.626zm2.296-4.375H10.641a.768.768 0 0 0-.766.774v8.952c0 .427.34.774.766.774h10.718a.768.768 0 0 0 .766-.774v-8.952a.768.768 0 0 0-.766-.774zm-2.819 5.406a.47.47 0 0 0-.35-.17c-.14 0-.238.066-.35.156l-.511.432c-.107.077-.191.129-.315.129a.452.452 0 0 1-.3-.112 3.573 3.573 0 0 1-.118-.112l-1.471-1.592a.603.603 0 0 0-.916.008l-3.459 4.173v-7.123a.36.36 0 0 1 .358-.32h9.781c.189 0 .342.14.353.328l.008 7.12-2.71-2.917z" fill="#59CD8F" fill-rule="nonzero"/></g></svg>