<svg width="32" height="32" xmlns="http://www.w3.org/2000/svg" xmlns:xlink="http://www.w3.org/1999/xlink"><defs><path d="M24 8.478v19.565C24 29.124 23.105 30 22 30H2c-1.105 0-2-.876-2-1.957V1.957C0 .876.895 0 2 0h13.333" id="a"/></defs><g fill="#fff" fill-rule="evenodd"><g transform="translate(4 1)"><mask id="b" fill="#fff"><use xlink:href="#a"/></mask><path stroke="#B29681" stroke-width=".5" d="M23.75 8.583L15.231.25H2C1.032.25.25 1.015.25 1.957v26.086c0 .942.782 1.707 1.75 1.707h20c.968 0 1.75-.765 1.75-1.707V8.583z"/><rect fill="#B29681" fill-rule="nonzero" mask="url(#b)" x="15" y="-5" width="14" height="14" rx="1.92"/></g><path d="M16 13.68a6.32 6.32 0 1 0 0 12.64 6.32 6.32 0 0 0 0-12.64zm-3.476 7.83a1.525 1.525 0 1 1-.029-3.05 1.525 1.525 0 0 1 .03 3.05zm3.455 3.484a1.524 1.524 0 1 1 .012-3.049 1.524 1.524 0 0 1-.012 3.049zM15.333 20a.667.667 0 1 1 1.334 0 .667.667 0 0 1-1.334 0zm.675-1.944a1.525 1.525 0 1 1 .012-3.05 1.525 1.525 0 0 1-.012 3.05zm3.454 3.484a1.525 1.525 0 1 1-.028-3.05 1.525 1.525 0 0 1 .028 3.05z" fill="#B29681" fill-rule="nonzero"/></g></svg>