<svg width="32" height="32" xmlns="http://www.w3.org/2000/svg"><g fill="#fff"><path d="M12.8 4H3.2A3.21 3.21 0 0 0 0 7.2v19.2c0 1.76 1.44 3.2 3.2 3.2h25.6c1.76 0 3.2-1.44 3.2-3.2v-16c0-1.76-1.44-3.2-3.2-3.2H16L12.8 4z" fill="#92CEFF"/><path d="M9.015 21.089L9 14.726c0-.313.32-.525.609-.402L15.42 16.8a.44.44 0 0 1 .266.4l.015 6.363c0 .313-.32.525-.61.401l-5.81-2.476a.436.436 0 0 1-.266-.4zm13.315-6.063l-5.363 2.314.014 5.889 5.363-2.315-.014-5.888zm.217-.768c.23 0 .437.184.438.435L23 21.056a.436.436 0 0 1-.263.4l-5.8 2.504a.437.437 0 0 1-.61-.399L16.31 17.2c0-.174.103-.332.264-.401l5.799-2.504a.437.437 0 0 1 .173-.036zm-6.59-3.584l-5.562 2.476 5.574 2.45 5.563-2.476-5.574-2.45zm0-.674c.06 0 .12.012.177.037l6.115 2.687a.435.435 0 0 1 .001.796l-6.1 2.715a.438.438 0 0 1-.356.001L9.68 13.55a.435.435 0 0 1-.002-.797l6.102-2.715a.438.438 0 0 1 .177-.038z" fill="#5EABEB"/></g></svg>