<svg width="32" height="32" xmlns="http://www.w3.org/2000/svg"><g fill="#fff"><path d="M12.8 4H3.2A3.21 3.21 0 0 0 0 7.2v19.2c0 1.76 1.44 3.2 3.2 3.2h25.6c1.76 0 3.2-1.44 3.2-3.2v-16c0-1.76-1.44-3.2-3.2-3.2H16L12.8 4z" fill="#92CEFF"/><path d="M18.667 16.333c1.133 0 2-.866 2-2 0-1.133-.867-2-2-2-1.134 0-2 .867-2 2 0 1.134.866 2 2 2zm-5.334 0c1.134 0 2-.866 2-2 0-1.133-.866-2-2-2-1.133 0-2 .867-2 2 0 1.134.867 2 2 2zm0 1.334c-1.533 0-4.666.8-4.666 2.333v1.667H18V20c0-1.533-3.133-2.333-4.667-2.333zm5.334 0c-.2 0-.4 0-.667.066.8.534 1.333 1.334 1.333 2.267v1.667h4V20c0-1.533-3.133-2.333-4.666-2.333z" fill="#5EABEB"/></g></svg>