<svg width="32" height="32" xmlns="http://www.w3.org/2000/svg"><g fill="#fff"><path d="M12.8 4H3.2A3.21 3.21 0 0 0 0 7.2v19.2c0 1.76 1.44 3.2 3.2 3.2h25.6c1.76 0 3.2-1.44 3.2-3.2v-16c0-1.76-1.44-3.2-3.2-3.2H16L12.8 4z" fill="#92CEFF"/><path d="M21.33 24.385h-9.613A1.717 1.717 0 0 1 10 22.67v-1.717a.687.687 0 1 1 1.373 0v1.373c0 .38.308.687.687.687h8.927c.38 0 .687-.307.687-.687v-1.373a.687.687 0 0 1 1.373 0v1.717c0 .948-.768 1.716-1.716 1.716zm-1.922-5.689a.687.687 0 0 1-.97-.971l2.405-2.405a.687.687 0 1 1 .97.97l-2.405 2.406zM17.003 21.1a.687.687 0 0 1-.971 0l-4.809-4.81a.687.687 0 0 1 .971-.97l3.638 3.637v-7.27a.687.687 0 0 1 1.373 0v8.584c0 .066-.012.13-.03.191a.676.676 0 0 1-.172.638z" fill="#5EABEB"/></g></svg>