<svg width="32" height="32" xmlns="http://www.w3.org/2000/svg"><g fill="#fff"><path d="M12.8 4H3.2A3.21 3.21 0 0 0 0 7.2v19.2c0 1.76 1.44 3.2 3.2 3.2h25.6c1.76 0 3.2-1.44 3.2-3.2v-16c0-1.76-1.44-3.2-3.2-3.2H16L12.8 4z" fill="#92CEFF"/><path d="M20.83 20.724a2.1 2.1 0 0 0-1.674.831l-4.423-2.633c.05-.194.08-.396.08-.605 0-.06-.005-.12-.009-.18l4.424-2.665a2.106 2.106 0 1 0-.398-.706l-4.386 2.274a2.407 2.407 0 1 0-2.037 3.683c.712 0 1.35-.31 1.79-.803l4.597 2.378a2.106 2.106 0 1 0 2.035-1.574z" fill="#5EABEB"/></g></svg>