<svg width="32" height="32" xmlns="http://www.w3.org/2000/svg"><g fill="#fff"><path d="M12.8 4H3.2A3.21 3.21 0 0 0 0 7.2v19.2c0 1.76 1.44 3.2 3.2 3.2h25.6c1.76 0 3.2-1.44 3.2-3.2v-16c0-1.76-1.44-3.2-3.2-3.2H16L12.8 4z" fill="#92CEFF"/><path d="M10.667 18c0 1.467.6 2.8 1.6 3.733l-1.6 1.6h4v-4L13.2 20.8c-.733-.667-1.2-1.667-1.2-2.8 0-1.733 1.133-3.2 2.667-3.8v-1.333c-2.267.6-4 2.666-4 5.133zm10.666-5.333h-4v4L18.8 15.2c.733.667 1.2 1.667 1.2 2.8 0 1.733-1.133 3.2-2.667 3.8v1.4c2.267-.6 4-2.667 4-5.133 0-1.467-.6-2.8-1.6-3.734l1.6-1.666z" fill="#5EABEB"/></g></svg>