<svg width="32" height="32" xmlns="http://www.w3.org/2000/svg"><g fill="#fff"><path d="M12.8 4H3.2A3.21 3.21 0 0 0 0 7.2v19.2c0 1.76 1.44 3.2 3.2 3.2h25.6c1.76 0 3.2-1.44 3.2-3.2v-16c0-1.76-1.44-3.2-3.2-3.2H16L12.8 4z" fill="#92CEFF"/><path d="M20.667 22.667v-1.334a.667.667 0 0 1 1.333 0v2a.667.667 0 0 1-.667.667H10.667a.667.667 0 0 1-.667-.667v-2a.667.667 0 0 1 1.333 0v1.334h9.334zm-5.334-8.391l-2.862 2.862a.667.667 0 1 1-.942-.943l4-4a.667.667 0 0 1 1.138.472v8a.667.667 0 0 1-1.334 0v-6.391zm2.488.817a.667.667 0 1 1 1.024-.853l1.667 2a.667.667 0 1 1-1.024.853l-1.667-2z" fill="#5EABEB"/></g></svg>