<svg width="32" height="32" xmlns="http://www.w3.org/2000/svg" xmlns:xlink="http://www.w3.org/1999/xlink"><defs><path d="M24 8.478v19.565C24 29.124 23.105 30 22 30H2c-1.105 0-2-.876-2-1.957V1.957C0 .876.895 0 2 0h13.333" id="a"/></defs><g fill="#fff" fill-rule="evenodd"><g transform="translate(4 1)"><mask id="b" fill="#fff"><use xlink:href="#a"/></mask><path stroke="#838BF9" stroke-width=".5" d="M23.75 8.583L15.231.25H2C1.032.25.25 1.015.25 1.957v26.086c0 .942.782 1.707 1.75 1.707h20c.968 0 1.75-.765 1.75-1.707V8.583z"/><rect fill="#838BF9" fill-rule="nonzero" mask="url(#b)" x="15" y="-5" width="14" height="14" rx="1.92"/></g><path d="M12.285 15.719a.653.653 0 0 0-.47.2v-.001L9.23 18.505a.652.652 0 0 0-.03.965h-.001l2.622 2.626.001-.001a.656.656 0 0 0 .926-.926v-.001l-2.162-2.165 2.156-2.157h-.001a.654.654 0 0 0-.456-1.127zM22.993 19c0-.2-.09-.375-.23-.495l-2.584-2.587a.654.654 0 0 0-1.126.457c0 .185.077.35.2.47h-.001l2.155 2.158-2.162 2.165a.654.654 0 0 0 .926.927l2.623-2.624v-.001a.652.652 0 0 0 .2-.47zm-5.252-5.25a.656.656 0 0 0-.616.434l-3.492 9.174a.656.656 0 0 0 1.229.458l3.491-9.174a.657.657 0 0 0-.612-.892z" fill="#838BF9" fill-rule="nonzero"/></g></svg>