<svg width="32" height="32" xmlns="http://www.w3.org/2000/svg" xmlns:xlink="http://www.w3.org/1999/xlink"><defs><path d="M24 8.478v19.565C24 29.124 23.105 30 22 30H2c-1.105 0-2-.876-2-1.957V1.957C0 .876.895 0 2 0h13.333" id="a"/></defs><g fill="#fff" fill-rule="evenodd"><g transform="translate(4 1)"><mask id="b" fill="#fff"><use xlink:href="#a"/></mask><path stroke="#3CCE95" stroke-width=".5" d="M23.75 8.583L15.231.25H2C1.032.25.25 1.015.25 1.957v26.086c0 .942.782 1.707 1.75 1.707h20c.968 0 1.75-.765 1.75-1.707V8.583z"/><rect fill="#3CCE95" fill-rule="nonzero" mask="url(#b)" x="15" y="-5" width="14" height="14" rx="1.92"/></g><text font-family="HelveticaNeue-Bold, Helvetica Neue" font-size="12" font-weight="bold" fill="#50D3A0" transform="translate(4 1)"><tspan x="8.054" y="24">H</tspan></text><path d="M9.074 5.656a.466.466 0 0 0-.336.143L6.892 7.645a.466.466 0 0 0-.022.69l1.872 1.875h.001a.469.469 0 0 0 .661-.662L7.86 8.001l1.54-1.54V6.46a.467.467 0 0 0-.326-.805zM16.722 8a.465.465 0 0 0-.164-.354l-1.846-1.848a.467.467 0 1 0-.662.663l1.54 1.541-1.545 1.546a.467.467 0 0 0 .662.663l1.873-1.875A.466.466 0 0 0 16.722 8zm-3.75-3.75a.469.469 0 0 0-.441.31l-2.494 6.553a.469.469 0 0 0 .877.327l2.494-6.553a.47.47 0 0 0-.437-.637z" fill="#3CCE95" fill-rule="nonzero"/></g></svg>