<svg width="32" height="32" xmlns="http://www.w3.org/2000/svg" xmlns:xlink="http://www.w3.org/1999/xlink"><defs><path d="M24 8.478v19.565C24 29.124 23.105 30 22 30H2c-1.105 0-2-.876-2-1.957V1.957C0 .876.895 0 2 0h13.333" id="a"/></defs><g fill="#fff" fill-rule="evenodd"><g transform="translate(2)"><mask id="b" fill="#fff"><use xlink:href="#a"/></mask><path stroke="#5EA9F9" stroke-width=".5" d="M23.75 8.583L15.231.25H2C1.032.25.25 1.015.25 1.957v26.086c0 .942.782 1.707 1.75 1.707h20c.968 0 1.75-.765 1.75-1.707V8.583z"/><rect fill="#5EA9F9" fill-rule="nonzero" mask="url(#b)" x="15" y="-5" width="14" height="14" rx="1.92"/></g><g transform="translate(5 14)" fill="#5EA9F9" fill-rule="nonzero"><rect width="13" height="2" rx="1"/><rect y="4.5" width="16" height="2" rx="1"/><rect y="9" width="10" height="2" rx="1"/></g><g transform="translate(14 16)" fill-rule="nonzero"><circle stroke="#FFF" stroke-width="2" fill="#DD2C00" cx="8" cy="8" r="9"/><path d="M6.929 7.347H9.54v-.98c0-.36-.128-.668-.383-.923a1.258 1.258 0 0 0-.923-.383c-.36 0-.668.128-.924.383a1.258 1.258 0 0 0-.382.923v.98zm4.245.49v2.939a.472.472 0 0 1-.143.346.472.472 0 0 1-.347.143H5.786a.472.472 0 0 1-.347-.143.472.472 0 0 1-.143-.346v-2.94c0-.135.048-.251.143-.346a.472.472 0 0 1 .347-.143h.163v-.98a2.2 2.2 0 0 1 .674-1.612 2.2 2.2 0 0 1 1.612-.673 2.2 2.2 0 0 1 1.612.673 2.2 2.2 0 0 1 .674 1.612v.98h.163c.136 0 .252.048.347.143.095.095.143.21.143.347z" fill="#FFF"/></g></g></svg>