<svg width="32" height="32" xmlns="http://www.w3.org/2000/svg" xmlns:xlink="http://www.w3.org/1999/xlink"><defs><path d="M24 8.478v19.565C24 29.124 23.105 30 22 30H2c-1.105 0-2-.876-2-1.957V1.957C0 .876.895 0 2 0h13.333" id="a"/></defs><g fill="#fff" fill-rule="evenodd"><g transform="translate(4 1)"><mask id="b" fill="#fff"><use xlink:href="#a"/></mask><path stroke="#F56262" stroke-width=".5" d="M23.75 8.583L15.231.25H2C1.032.25.25 1.015.25 1.957v26.086c0 .942.782 1.707 1.75 1.707h20c.968 0 1.75-.765 1.75-1.707V8.583z"/><rect fill="#F56262" fill-rule="nonzero" mask="url(#b)" x="15" y="-5" width="14" height="14" rx="1.92"/></g><path d="M22.222 13.311L12.5 15.644v7.623c-.389 0-.856.077-1.283.272-1.206.505-1.867 1.555-1.556 2.333.311.778 1.556 1.05 2.761.545 1.05-.428 1.75-1.323 1.634-2.061V16.85l6.61-1.556v6.028c-.388 0-.855.078-1.283.272-1.205.506-1.866 1.556-1.555 2.334.31.778 1.555 1.05 2.76.544 1.05-.428 1.75-1.322 1.634-2.06v-9.1z" fill="#F87670" fill-rule="nonzero"/></g></svg>