<svg width="32" height="32" xmlns="http://www.w3.org/2000/svg" xmlns:xlink="http://www.w3.org/1999/xlink"><defs><path d="M24 8.478v19.565C24 29.124 23.105 30 22 30H2c-1.105 0-2-.876-2-1.957V1.957C0 .876.895 0 2 0h13.333" id="a"/></defs><g fill="#fff" fill-rule="evenodd"><g transform="translate(4 1)"><mask id="b" fill="#fff"><use xlink:href="#a"/></mask><path stroke="#F56262" stroke-width=".5" d="M23.75 8.583L15.231.25H2C1.032.25.25 1.015.25 1.957v26.086c0 .942.782 1.707 1.75 1.707h20c.968 0 1.75-.765 1.75-1.707V8.583z"/><rect fill="#F56262" fill-rule="nonzero" mask="url(#b)" x="15" y="-5" width="14" height="14" rx="1.92"/></g><path d="M21.044 22.461a4.956 4.956 0 0 1-2.875-1.167c-1.593.35-3.108.856-4.623 1.478C12.34 24.912 11.215 26 10.243 26c-.194 0-.427-.039-.583-.156a1.146 1.146 0 0 1-.66-1.05c0-.35.078-1.322 3.769-2.916.854-1.556 1.515-3.15 2.059-4.822-.467-.934-1.477-3.228-.777-4.395.233-.428.699-.661 1.204-.622.389 0 .777.194 1.01.505.505.7.466 2.178-.194 4.356a11.728 11.728 0 0 0 2.409 3.111c.816-.155 1.631-.272 2.447-.272 1.826.039 2.098.894 2.06 1.4 0 1.322-1.283 1.322-1.943 1.322zm-10.878 2.411l.116-.039c.544-.194.971-.583 1.282-1.089a3.07 3.07 0 0 0-1.398 1.128zm5.167-11.666h-.117c-.039 0-.116 0-.155.038-.156.662-.04 1.362.233 1.984a3.271 3.271 0 0 0 .039-2.022zm.272 5.638l-.04.078-.038-.039c-.35.895-.738 1.79-1.166 2.645l.078-.04v.079a22.608 22.608 0 0 1 2.642-.778l-.039-.039h.117a11.914 11.914 0 0 1-1.554-1.906zm5.283 2.062c-.35 0-.66 0-1.01.077.389.195.777.273 1.166.311.272.04.544 0 .777-.077 0-.117-.156-.311-.933-.311z" fill="#F56262" fill-rule="nonzero"/></g></svg>