<svg width="32" height="32" xmlns="http://www.w3.org/2000/svg" xmlns:xlink="http://www.w3.org/1999/xlink"><defs><path d="M24 8.478v19.565C24 29.124 23.105 30 22 30H2c-1.105 0-2-.876-2-1.957V1.957C0 .876.895 0 2 0h13.333" id="a"/></defs><g fill="#fff" fill-rule="evenodd"><g transform="translate(4 1)"><mask id="b" fill="#fff"><use xlink:href="#a"/></mask><path stroke="#FFA726" stroke-width=".5" d="M23.75 8.583L15.231.25H2C1.032.25.25 1.015.25 1.957v26.086c0 .942.782 1.707 1.75 1.707h20c.968 0 1.75-.765 1.75-1.707V8.583z"/><rect fill="#FFA726" fill-rule="nonzero" mask="url(#b)" x="15" y="-5" width="14" height="14" rx="1.92"/></g><path d="M13 20.938H9v-7h4v7zm-1-3h-2v2h2v-2zM13 13h-2v-2h2v2zm-4-2V9h2v2H9zm0-6h2v2H9V5zm0-4h2v2H9V1zm4 2v2h-2V3h2zm0 4v2h-2V7h2z" fill="#FFA726" fill-rule="nonzero"/></g></svg>