<svg width="32" height="32" xmlns="http://www.w3.org/2000/svg"><g fill="#fff"><path d="M12.8 4H3.2A3.21 3.21 0 0 0 0 7.2v19.2c0 1.76 1.44 3.2 3.2 3.2h25.6c1.76 0 3.2-1.44 3.2-3.2v-16c0-1.76-1.44-3.2-3.2-3.2H16L12.8 4z" fill="#92CEFF"/><path d="M13.714 17.857h4.572v-1.714c0-.631-.224-1.17-.67-1.616a2.202 2.202 0 0 0-1.616-.67 2.2 2.2 0 0 0-1.616.67c-.446.446-.67.985-.67 1.616v1.714zm7.429.857v5.143c0 .238-.083.44-.25.607a.827.827 0 0 1-.607.25h-8.572a.827.827 0 0 1-.607-.25.827.827 0 0 1-.25-.607v-5.143c0-.238.083-.44.25-.607a.827.827 0 0 1 .607-.25H12v-1.714c0-1.095.393-2.036 1.179-2.822.785-.785 1.726-1.178 2.821-1.178 1.095 0 2.036.393 2.821 1.178.786.786 1.179 1.727 1.179 2.822v1.714h.286c.238 0 .44.083.607.25.167.167.25.37.25.607z" fill="#5EABEB"/></g></svg>